<?xml version="1.0" encoding="UTF-8"?>
<!-- Generated by Pixelmator Pro 3.6.12 -->
<svg width="582" height="582" viewBox="0 0 582 582" xmlns="http://www.w3.org/2000/svg">
    <path id="Path" fill="#d5d4d4" stroke="none" d="M 125.720001 70.029999 C 192.216003 119.950989 263.73999 221.169983 290 275.48999 C 316.261993 221.174011 387.782013 119.950012 454.279999 70.029999 C 502.26001 34.008972 580 6.138 580 94.825012 C 580 112.536987 569.844971 243.61499 563.888977 264.89502 C 543.185974 338.878998 467.744995 357.748993 400.639008 346.328003 C 517.939026 366.291992 547.778992 432.420013 483.335999 498.548004 C 360.946014 624.138 307.425995 467.036987 293.705994 426.782013 C 291.191986 419.402313 290.015594 415.950012 289.998291 418.88559 C 289.980896 415.94989 288.804596 419.402283 286.290588 426.782013 C 272.576599 467.036987 219.057602 624.142029 96.660599 498.548004 C 32.216599 432.420013 62.055603 366.287994 179.357605 346.328003 C 112.249603 357.748993 36.807598 338.878906 16.107599 264.89502 C 10.1514 243.613007 -0.0034 112.535004 -0.0034 94.825012 C -0.0034 6.138 77.738602 34.008972 125.716599 70.029999 Z"/>
</svg>
